<?xml version="1.0" standalone="no"?>
<svg xmlns:xlink="http://www.w3.org/1999/xlink" id="wave" style="transform:rotate(0deg); transition: 0.3s" viewBox="0 0 1440 100" version="1.1" xmlns="http://www.w3.org/2000/svg"><defs><linearGradient id="sw-gradient-0" x1="0" x2="0" y1="1" y2="0"><stop stop-color="rgba(251, 75, 5, 1)" offset="0%"/><stop stop-color="rgba(251, 75, 5, 1)" offset="100%"/></linearGradient></defs><path style="transform:translate(0, 0px); opacity:1" fill="url(#sw-gradient-0)" d="M0,70L120,58.3C240,47,480,23,720,23.3C960,23,1200,47,1440,61.7C1680,77,1920,83,2160,80C2400,77,2640,63,2880,60C3120,57,3360,63,3600,65C3840,67,4080,63,4320,66.7C4560,70,4800,80,5040,80C5280,80,5520,70,5760,66.7C6000,63,6240,67,6480,56.7C6720,47,6960,23,7200,15C7440,7,7680,13,7920,20C8160,27,8400,33,8640,43.3C8880,53,9120,67,9360,61.7C9600,57,9840,33,10080,20C10320,7,10560,3,10800,3.3C11040,3,11280,7,11520,6.7C11760,7,12000,3,12240,6.7C12480,10,12720,20,12960,26.7C13200,33,13440,37,13680,35C13920,33,14160,27,14400,20C14640,13,14880,7,15120,13.3C15360,20,15600,40,15840,53.3C16080,67,16320,73,16560,68.3C16800,63,17040,47,17160,38.3L17280,30L17280,100L17160,100C17040,100,16800,100,16560,100C16320,100,16080,100,15840,100C15600,100,15360,100,15120,100C14880,100,14640,100,14400,100C14160,100,13920,100,13680,100C13440,100,13200,100,12960,100C12720,100,12480,100,12240,100C12000,100,11760,100,11520,100C11280,100,11040,100,10800,100C10560,100,10320,100,10080,100C9840,100,9600,100,9360,100C9120,100,8880,100,8640,100C8400,100,8160,100,7920,100C7680,100,7440,100,7200,100C6960,100,6720,100,6480,100C6240,100,6000,100,5760,100C5520,100,5280,100,5040,100C4800,100,4560,100,4320,100C4080,100,3840,100,3600,100C3360,100,3120,100,2880,100C2640,100,2400,100,2160,100C1920,100,1680,100,1440,100C1200,100,960,100,720,100C480,100,240,100,120,100L0,100Z"/></svg>